# xmcd
#
# Track frame offsets: 
# 187
# 24150
# 38500
# 64070
# 95755
# 120185
# 146240
# 163520
#
# Disc length: 2484 seconds
# Submitted via: tkcNetwork 1.0
# Revision: 0
# Processed by: cddbd v1.5.1PL0 Copyright (c) Steve Scherf et al.
#
DISCID=5e09b208
DTITLE=Steely Dan - Countdown to Ecstasy
DYEAR=1900
DGENRE=
TTITLE0=Bodhisattva
TTITLE1=Razor Boy
TTITLE2=The Boston Rag
TTITLE3=Your Gold Teeth
TTITLE4=Show Biz Kids
TTITLE5=My Old School
TTITLE6=Pearl of the Quarter
TTITLE7=King Of The World
EXTD=
EXTT0=
EXTT1=
EXTT2=
EXTT3=
EXTT4=
EXTT5=
EXTT6=
EXTT7=
PLAYORDER=
